<?xml version="1.0" encoding="UTF-8"?>
<svg version="1.1" xmlns="http://www.w3.org/2000/svg" width="218" height="220">
<path d="M0 0 C71.94 0 143.88 0 218 0 C218 72.6 218 145.2 218 220 C146.06 220 74.12 220 0 220 C0 147.4 0 74.8 0 0 Z " fill="#07353F" transform="translate(0,0)"/>
<path d="M0 0 C71.94 0 143.88 0 218 0 C218 72.6 218 145.2 218 220 C146.06 220 74.12 220 0 220 C0 147.4 0 74.8 0 0 Z M91 23 C91 23.66 91 24.32 91 25 C89.865625 25.0825 88.73125 25.165 87.5625 25.25 C81.77918537 25.96778728 76.47679601 28.21980287 71.75 31.6171875 C68.07519748 33.46502854 64.69964928 33.27369379 60.6875 33.25 C55.18114019 33.37791842 51.32737278 33.60726924 47 37.375 C43.4613139 41.08746086 42.98789055 44.05943868 42.9375 49.0625 C42.45496424 55.15049283 39.97532775 58.23107064 36.01171875 62.70703125 C32.81054612 66.35574646 30 70.00828646 30 75 C29.113125 74.9175 28.22625 74.835 27.3125 74.75 C23.20931066 75.05967467 21.84200889 76.07904641 19 79 C15.81724149 84.45615745 16.51547788 91.06191151 18 97 C18.66 97 19.32 97 20 97 C21.80710088 102.42130263 21.47512394 108.25997992 21.6875 113.9375 C21.74744141 115.22591797 21.80738281 116.51433594 21.86914062 117.84179688 C21.91619141 119.07865234 21.96324219 120.31550781 22.01171875 121.58984375 C22.05772217 122.72284912 22.10372559 123.85585449 22.15112305 125.02319336 C21.99932777 128.01324153 21.46593634 129.45561336 20 132 C19.38614853 136.63942483 18.91361509 141.68806516 20.9453125 146.01171875 C23.41669445 149.09706036 26.4493825 151.31812855 30 153 C30.99 153 31.98 153 33 153 C33.25394531 153.54785156 33.50789063 154.09570312 33.76953125 154.66015625 C34.99110239 157.09533976 34.99110239 157.09533976 36.76171875 159.55859375 C41.54232209 166.70525635 42.24696607 170.66399003 41.02734375 179.0703125 C40.99429387 182.61137131 41.63991836 183.66550356 44.0625 186.1875 C48.9880495 190.44481302 54.42220188 191.18888829 60.75 191.375 C67.27800324 191.75940398 72.11545916 193.31249323 78 196 C82.47272605 197.71566879 86.58103114 199.05131962 91.375 199.375 C95 200 95 200 96.75 202.375 C97.1625 203.24125 97.575 204.1075 98 205 C99.87713998 207.01618739 101.13883735 207.90234238 103.89453125 208.21484375 C105.94944126 208.24915579 107.95185407 208.16113778 110 208 C110.721875 207.95875 111.44375 207.9175 112.1875 207.875 C115.33129567 206.35730554 116.95073527 203.78927699 119 201 C119 200.34 119 199.68 119 199 C119.88042969 198.95101562 120.76085937 198.90203125 121.66796875 198.8515625 C122.82941406 198.77679688 123.99085937 198.70203125 125.1875 198.625 C126.91033203 198.52058594 126.91033203 198.52058594 128.66796875 198.4140625 C131.79959117 198.02490426 134.15285809 197.3190149 137 196 C137 195.34 137 194.68 137 194 C143.43034991 192.27758484 149.59299356 191.67382587 156.23828125 191.69360352 C159.91828851 191.58852488 162.50566244 191.01355903 165.43359375 188.84765625 C168.41262291 185.54215814 168.69569488 184.11660701 168.875 179.75 C169.57982218 173.41371981 171.35948063 170.66903369 175.828125 166.265625 C180.18208956 161.72371952 184.0047305 155.98580849 186 150 C187.093125 149.690625 188.18625 149.38125 189.3125 149.0625 C194.05268628 147.70544843 194.05268628 147.70544843 197 144 C197.94167797 137.77208431 197.00666325 133.51221596 194 128 C193.6 122.8 193.6 122.8 195 120 C195.06976369 118.5105633 195.08480976 117.0183429 195.0703125 115.52734375 C195.18445731 98.14605932 195.18445731 98.14605932 201.4609375 91.84375 C203.82004667 89.01760906 203.8026168 86.57384316 203.4921875 83.00390625 C202.25243218 77.956331 198.12749282 74.81419965 194 72 C192.6707021 71.6109372 191.3369533 71.2368821 190 70.875 C187.31805825 69.94605928 186.24970769 69.38611517 184.69140625 66.9765625 C183.91223244 65.26723311 183.15847538 63.54616869 182.42578125 61.81640625 C180.76770221 58.5411323 178.69185204 56.17160519 176.25 53.4375 C172.58634323 49.16423972 171.24193041 46.5742812 171.15234375 41 C170.81901538 36.62399676 167.79880108 33.80461054 164.8515625 30.8359375 C161.20134232 28.48579574 158.29514091 28.65299506 154.125 28.9375 C148.19211614 29.31321193 144.49627308 28.65114349 139 26 C136.42504512 25.18168807 133.83918388 24.46201172 131.234375 23.74609375 C129 23 129 23 126 21 C124.081875 20.814375 124.081875 20.814375 122.125 20.625 C118.04023139 20.22027063 116.05009395 18.78865732 113 16 C103.58110609 12.8603687 97.43339241 15.83136274 91 23 Z " fill="#06343D" transform="translate(0,0)"/>
<path d="M0 0 C2.5625 1.625 2.5625 1.625 4.5625 3.625 C6.72090057 4.1981122 6.72090057 4.1981122 9.1875 4.5625 C13.91908335 5.43267625 18.12326966 6.80813758 22.5625 8.625 C28.16656911 10.86450489 33.20085362 12.81306413 39.35546875 12.46875 C48.66037029 12.00639464 48.66037029 12.00639464 52.6875 15.375 C54.91354594 17.56782137 56.39879583 19.71852357 57.5625 22.625 C57.541875 23.90375 57.52125 25.1825 57.5 26.5 C57.98950321 32.42298879 61.73541465 36.14706033 65.4152832 40.51635742 C68.07046975 43.67626668 70.17316029 46.42258473 71.6875 50.3125 C73.15832777 53.68486313 73.15832777 53.68486313 75.54296875 54.48828125 C77.10450673 54.91463082 78.66837305 55.33253798 80.234375 55.7421875 C84.62887284 57.40855748 87.28241543 60.6050355 89.5625 64.625 C90.56123196 67.88675467 90.59228194 70.36497208 89.5625 73.625 C88.01171875 75.45703125 88.01171875 75.45703125 86.125 77.375 C80.29521301 83.90858421 81.57636779 93.34717859 81.65673828 101.61303711 C81.5625 103.625 81.5625 103.625 80.5625 105.625 C80.23637111 109.21241779 80.31942567 111.17936373 82.0625 114.375 C84.11928475 118.83136696 84.55983866 122.79916777 83.5625 127.625 C81.79852274 130.21216665 80.3746455 130.98016018 77.5625 132.625 C76.7271875 132.728125 75.891875 132.83125 75.03125 132.9375 C72.38581759 133.39388055 72.38581759 133.39388055 71.04296875 135.77734375 C70.61628906 136.69644531 70.18960938 137.61554688 69.75 138.5625 C66.33331821 145.36036558 61.94469983 151.24280017 56.5625 156.625 C56.08512044 159.86499273 55.79834254 163.10086964 55.515625 166.36328125 C54.49709585 169.84882158 53.27224734 171.54213018 50.34130859 173.70239258 C47.26773713 175.29654939 44.12813741 175.32255398 40.75 175.3125 C34.77173946 175.4766549 29.34731603 176.07549571 23.5625 177.625 C23.5625 178.285 23.5625 178.945 23.5625 179.625 C18.53142071 181.98479329 13.90414083 181.94944383 8.42578125 182.0859375 C5.45952548 182.29611916 5.45952548 182.29611916 4.25390625 184.52734375 C3.91166016 185.56568359 3.91166016 185.56568359 3.5625 186.625 C1.23650881 190.32544053 1.23650881 190.32544053 -1.125 191.375 C-10.48965712 192.38739536 -10.48965712 192.38739536 -14.3125 189.3125 C-16.4375 186.625 -16.4375 186.625 -18.4375 183.625 C-21.1446715 183.00082316 -21.1446715 183.00082316 -24.3125 182.75 C-32.00833118 181.74842909 -38.5364991 179.07550045 -45.4375 175.625 C-47.66471253 175.46900846 -49.89455199 175.34955241 -52.125 175.25 C-60.16160735 174.69999725 -65.70752756 173.35281613 -71.34375 167.296875 C-73.2315355 164.41126002 -72.8525388 161.94531036 -72.4375 158.625 C-72.18355469 157.70074219 -71.92960937 156.77648437 -71.66796875 155.82421875 C-71.36410655 151.60619934 -73.00179222 149.27218363 -75.3125 145.9375 C-79.36338369 139.84734892 -79.36338369 139.84734892 -80.4375 136.625 C-81.159375 136.5425 -81.88125 136.46 -82.625 136.375 C-87.47845098 135.08074641 -90.8480204 131.85227011 -93.4375 127.625 C-93.80078125 124.75 -93.80078125 124.75 -93.75 121.625 C-93.74419922 120.078125 -93.74419922 120.078125 -93.73828125 118.5 C-93.4375 115.625 -93.4375 115.625 -92.41943359 113.84594727 C-91.09133064 110.84203067 -91.29288278 108.48796313 -91.42578125 105.21484375 C-91.47283203 103.97798828 -91.51988281 102.74113281 -91.56835938 101.46679688 C-91.62830078 100.17837891 -91.68824219 98.88996094 -91.75 97.5625 C-91.79833984 96.27021484 -91.84667969 94.97792969 -91.89648438 93.64648438 C-92.04334487 87.03052083 -92.04334487 87.03052083 -93.4375 80.625 C-94.0975 80.625 -94.7575 80.625 -95.4375 80.625 C-96.85737763 74.9454895 -97.25473414 69.79067048 -95.1875 64.3125 C-93.41227305 61.58625862 -92.32088197 60.10788216 -89.4375 58.625 C-86.1875 58.4375 -86.1875 58.4375 -83.4375 58.625 C-83.34082031 57.903125 -83.24414062 57.18125 -83.14453125 56.4375 C-82.33525895 53.21829529 -81.0757346 51.2983836 -79.125 48.625 C-78.18333984 47.30822266 -78.18333984 47.30822266 -77.22265625 45.96484375 C-75.4375 43.625 -75.4375 43.625 -73.0625 41.1875 C-70.80429576 37.62648562 -70.95103135 34.35803016 -70.6953125 30.2109375 C-70.167678 24.91860362 -67.23664119 21.98876901 -63.23657227 18.69921875 C-60.00305567 16.76849911 -56.67627331 17.00074121 -53 17.0625 C-46.46224117 17.13804744 -42.98215667 16.15401089 -37.4375 12.625 C-35.56393722 11.82098101 -33.66859013 11.06470715 -31.75 10.375 C-30.83863281 10.03984375 -29.92726563 9.7046875 -28.98828125 9.359375 C-26.4375 8.625 -26.4375 8.625 -22.4375 8.625 C-22.210625 8.068125 -21.98375 7.51125 -21.75 6.9375 C-16.89125995 -1.62313722 -8.8191019 -3.52764076 0 0 Z M-21.4375 9.625 C-22.71234769 11.6271664 -22.71234769 11.6271664 -23.3125 14 C-24.69758606 17.54536432 -25.7323717 19.31827487 -29.125 21.125 C-33.38680546 22.85511842 -37.82737689 23.86263521 -42.4375 23.625 C-43.85482422 22.99271484 -43.85482422 22.99271484 -45.30078125 22.34765625 C-48.5743009 21.2240688 -48.5743009 21.2240688 -51.69140625 23.44140625 C-52.81123183 24.33594148 -53.91387593 25.25233311 -55 26.1875 C-55.55107422 26.63158203 -56.10214844 27.07566406 -56.66992188 27.53320312 C-58.29456856 28.86105789 -59.86891824 30.23159362 -61.4375 31.625 C-62.38367188 32.45128906 -63.32984375 33.27757813 -64.3046875 34.12890625 C-66.7763169 37.02152747 -67.00535443 38.26260856 -67 42 C-67.3279509 48.58560858 -69.00978205 52.19728205 -73.75 56.9375 C-76.4375 58.625 -76.4375 58.625 -80 59.1875 C-83.49260406 60.25577895 -83.49260406 60.25577895 -84.73828125 62.734375 C-87.48370318 69.64285492 -89.07033881 77.1816102 -88.4375 84.625 C-87.08582439 87.32321176 -85.72389138 88.55636018 -83.4375 90.625 C-81.75424466 95.67476602 -81.53642419 100.69997442 -83.8125 105.5625 C-85.4375 107.625 -85.4375 107.625 -87.4375 109.625 C-87.29550699 117.15062961 -84.34810771 123.77011082 -81.4375 130.625 C-81.13328125 131.37523437 -80.8290625 132.12546875 -80.515625 132.8984375 C-79.15231957 135.08170199 -77.99212875 135.54952765 -75.625 136.5 C-71.35346188 138.53073124 -68.87672458 140.43258275 -66.4375 144.625 C-66.3828125 147.17578125 -66.3828125 147.17578125 -66.5625 150 C-66.75851935 154.38370541 -66.37137892 156.51306659 -63.5 159.875 C-62.18228711 161.1633711 -60.82536527 162.41252429 -59.4375 163.625 C-58.69242188 164.31207031 -57.94734375 164.99914062 -57.1796875 165.70703125 C-54.01067885 168.46714247 -54.01067885 168.46714247 -50.4375 170.625 C-47.49299095 170.38540323 -47.49299095 170.38540323 -44.4375 169.625 C-36.69151377 168.93690478 -30.55633436 169.34288566 -23.55859375 172.84765625 C-20.56109724 175.35937064 -19.23641304 178.16178646 -17.4375 181.625 C-13.68808747 181.79932891 -9.93971491 181.90585841 -6.1875 182 C-5.12402344 182.05027344 -4.06054688 182.10054687 -2.96484375 182.15234375 C-0.00946884 182.20810554 2.66051116 182.19390531 5.5625 181.625 C8.2874393 178.91791482 8.2874393 178.91791482 9.5625 175.625 C11.625 173.25 11.625 173.25 13.5625 171.625 C14.5525 171.625 15.5425 171.625 16.5625 171.625 C15.985 172.02332031 15.4075 172.42164063 14.8125 172.83203125 C14.07 173.36183594 13.3275 173.89164063 12.5625 174.4375 C11.44875 175.22060547 11.44875 175.22060547 10.3125 176.01953125 C9.735 176.54933594 9.1575 177.07914063 8.5625 177.625 C8.5625 178.615 8.5625 179.605 8.5625 180.625 C16.28579019 179.18506454 23.2907249 176.56967554 30.5625 173.625 C30.5625 172.635 30.5625 171.645 30.5625 170.625 C27.9225 170.295 25.2825 169.965 22.5625 169.625 C26.25045429 169.54973563 29.30598622 169.55240176 32.875 170.5625 C38.70845262 170.66137208 42.17389475 167.19286145 46.5625 163.625 C47.64273438 162.8825 48.72296875 162.14 49.8359375 161.375 C52.80020398 158.38525272 53.19267577 156.99656016 53.19018555 152.8503418 C53.1579187 151.81067261 53.1579187 151.81067261 53.125 150.75 C53.26525357 141.94585563 53.26525357 141.94585563 55.75 138.3125 C59.43447773 134.79177683 62.35869638 132.69432017 67.54296875 132.53125 C70.9184204 131.89763878 70.9184204 131.89763878 72.4609375 128.2734375 C72.97875367 126.85807329 73.47011339 125.43280815 73.9375 124 C74.19660156 123.30003906 74.45570313 122.60007812 74.72265625 121.87890625 C76.76815635 116.04544301 77.6120266 111.03016513 75.0625 105.1875 C72.77031006 99.7435489 72.70712707 95.23489668 74.9375 89.75 C76.5625 86.625 76.5625 86.625 78.5625 84.625 C79.24451567 77.69117399 77.78495052 72.20994913 75.54296875 65.65234375 C74.74845072 63.19915062 74.33171154 61.09112077 74 58.5625 C72.86169169 55.46196502 72.86169169 55.46196502 70.171875 54.49609375 C68.21340216 53.82843256 66.24405866 53.19189755 64.265625 52.5859375 C60.03786658 51.08300604 57.77940175 48.52024226 55.40625 44.82421875 C54.30862469 41.9632787 54.7493003 39.96287129 55.125 36.9375 C55.22126546 32.78795196 55.04222993 31.19378663 52.33203125 27.98046875 C49.50127577 25.6768985 46.61542173 23.62227798 43.5625 21.625 C42.95019531 21.14933594 42.33789062 20.67367187 41.70703125 20.18359375 C38.32905511 17.58445393 35.75963355 17.14805301 31.5625 17.625 C30.9025 17.955 30.2425 18.285 29.5625 18.625 C23.28035339 19.12710465 17.51975713 18.6792266 11.5625 16.625 C9.1875 14.5 9.1875 14.5 7.5625 12.625 C6.9025 12.625 6.2425 12.625 5.5625 12.625 C5.0675 10.15 5.0675 10.15 4.5625 7.625 C1.35424438 7.56650446 -1.85387233 7.53123838 -5.0625 7.5 C-5.96613281 7.48324219 -6.86976562 7.46648438 -7.80078125 7.44921875 C-14.83676829 7.38469735 -14.83676829 7.38469735 -21.4375 9.625 Z " fill="#8FA4A9" transform="translate(113.4375,16.375)"/>
<path d="M0 0 C3.3 0 6.6 0 10 0 C14.07986174 9.93228476 18.0779614 19.76336541 21.0859375 30.08203125 C22.32538272 34.03872175 23.92916741 37.79385589 25.5625 41.6015625 C27.37919965 45.89647743 29.10544588 50.22303641 30.8125 54.5625 C31.12678955 55.34906982 31.4410791 56.13563965 31.76489258 56.94604492 C32.05517334 57.68701416 32.3454541 58.4279834 32.64453125 59.19140625 C32.90596924 59.85342041 33.16740723 60.51543457 33.43676758 61.19750977 C34 63 34 63 34 66 C34.66 66 35.32 66 36 66 C36.17873657 64.49155518 36.17873657 64.49155518 36.36108398 62.95263672 C36.91878536 59.07154134 37.99472195 55.48586309 39.22265625 51.7578125 C39.44402252 51.07986633 39.66538879 50.40192017 39.89346313 49.70343018 C40.61122785 47.50885933 41.33685011 45.31697466 42.0625 43.125 C42.55963626 41.60909502 43.0561317 40.09297974 43.55200195 38.57666016 C44.55188947 35.51985246 45.55406629 32.46380988 46.55761719 29.40820312 C48.63420528 23.07445399 50.66240656 16.72538558 52.6875 10.375 C53.02595947 9.31555176 53.36441895 8.25610352 53.71313477 7.16455078 C54.47599629 4.7765502 55.23809939 2.38830734 56 0 C58.97 0 61.94 0 65 0 C65 24.42 65 48.84 65 74 C62.36 74 59.72 74 57 74 C56.505 45.29 56.505 45.29 56 16 C50.82387123 32.5137306 50.82387123 32.5137306 45.64892578 49.02783203 C44.99776409 51.10450559 44.34656236 53.18116659 43.6953125 55.2578125 C43.36007568 56.32829834 43.02483887 57.39878418 42.67944336 58.50170898 C38.19111375 72.80888625 38.19111375 72.80888625 37 74 C35.31391034 74.07205511 33.62499341 74.08386068 31.9375 74.0625 C30.55884766 74.04896484 30.55884766 74.04896484 29.15234375 74.03515625 C28.08693359 74.01775391 28.08693359 74.01775391 27 74 C26.74605469 73.154375 26.49210937 72.30875 26.23046875 71.4375 C23.9268502 63.81193541 23.9268502 63.81193541 21.25 56.3125 C20 53 20 53 20 51 C19.34 51 18.68 51 18 51 C9.46994163 28.2814798 9.46994163 28.2814798 7.5703125 19.14453125 C7.05071216 16.72698946 7.05071216 16.72698946 5 14 C4.67 33.8 4.34 53.6 4 74 C2.68 74 1.36 74 0 74 C0 49.58 0 25.16 0 0 Z " fill="#E4E9EA" transform="translate(77,71)"/>
<path d="M0 0 C11.22366214 0.55925464 11.22366214 0.55925464 16.5625 2.5625 C22.32394463 4.55179359 28.13560319 4.08403442 34.13696289 3.62524414 C38.72388955 3.42105588 41.34683827 3.79196859 44.95703125 6.76171875 C47.29194917 8.95167964 48.81985382 11.01298959 50 14 C49.979375 15.27875 49.95875 16.5575 49.9375 17.875 C50.42700321 23.79798879 54.17291465 27.52206033 57.8527832 31.89135742 C60.50796975 35.05126668 62.61066029 37.79758473 64.125 41.6875 C65.59582777 45.05986313 65.59582777 45.05986313 67.98046875 45.86328125 C69.54200673 46.28963082 71.10587305 46.70753798 72.671875 47.1171875 C77.06637284 48.78355748 79.71991543 51.9800355 82 56 C82.99873196 59.26175467 83.02978194 61.73997208 82 65 C80.44921875 66.83203125 80.44921875 66.83203125 78.5625 68.75 C72.73271301 75.28358421 74.01386779 84.72217859 74.09423828 92.98803711 C74 95 74 95 73 97 C72.67387111 100.58741779 72.75692567 102.55436373 74.5 105.75 C76.55678475 110.20636696 76.99733866 114.17416777 76 119 C74.23602274 121.58716665 72.8121455 122.35516018 70 124 C68.74896484 124.15275391 68.74896484 124.15275391 67.47265625 124.30859375 C64.81713719 124.77165049 64.81713719 124.77165049 63.4453125 127.1875 C63.00960937 128.115625 62.57390625 129.04375 62.125 130 C59.3825515 135.40029704 56.4833942 140.83615658 52 145 C50.33801879 145.35595978 48.67138365 145.69118681 47 146 C46.34 146.99 45.68 147.98 45 149 C43.96760289 134.31701891 43.96760289 134.31701891 47.625 129.25 C51.34536354 125.23270604 54.82833895 123.12064784 60.375 122.8125 C61.674375 122.9053125 61.674375 122.9053125 63 123 C63.19335938 122.26394531 63.38671875 121.52789062 63.5859375 120.76953125 C63.84632813 119.79371094 64.10671875 118.81789063 64.375 117.8125 C64.63023437 116.84957031 64.88546875 115.88664062 65.1484375 114.89453125 C66 112 66 112 67.08203125 109.34765625 C68.88399023 104.73924202 68.45221814 101.03633323 66.5 96.5625 C64.20781006 91.1185489 64.14462707 86.60989668 66.375 81.125 C68 78 68 78 70 76 C70.77574162 68.11329357 68.73263534 61.37482309 66 54 C65.67 53.67 65.34 53.34 65 53 C64.95919217 51.00041636 64.95745644 48.99954746 65 47 C63.96875 46.9175 62.9375 46.835 61.875 46.75 C55.96904473 45.60691188 51.92082485 42.48094268 48 38 C45.76427924 34.53922677 46.04189769 32.26880664 46.5 28.25 C46.58625326 24.32068482 46.52946437 22.63865352 43.9921875 19.578125 C41.41472506 17.53154288 38.7900892 15.74275842 36 14 C34.91631492 13.16712413 33.83290264 12.33389294 32.75 11.5 C29.54708653 9.75295629 27.59671131 9.59128281 24 10 C23.01 10.495 23.01 10.495 22 11 C16.71089889 11.40253336 11.78709845 11.55311917 7 9 C7 8.34 7 7.68 7 7 C6.21625 6.773125 5.4325 6.54625 4.625 6.3125 C1.34141063 4.67070532 1.16268853 3.36310374 0 0 Z " fill="#93A7AC" transform="translate(121,25)"/>
<path d="M0 0 C2.5625 1.625 2.5625 1.625 4.5625 3.625 C6.72090057 4.1981122 6.72090057 4.1981122 9.1875 4.5625 C13.92181133 5.43317795 18.11777234 6.81877601 22.5625 8.625 C24.06101343 9.19144837 25.56098986 9.7540436 27.0625 10.3125 C28.2175 10.745625 29.3725 11.17875 30.5625 11.625 C30.2325 12.285 29.9025 12.945 29.5625 13.625 C28.47710937 13.34785156 27.39171875 13.07070313 26.2734375 12.78515625 C24.82815719 12.4191437 23.38284288 12.0532654 21.9375 11.6875 C21.22464844 11.50509766 20.51179688 11.32269531 19.77734375 11.13476562 C15.72280687 10.11183201 11.70302941 9.24542633 7.5625 8.625 C8.20171965 11.10127099 8.20171965 11.10127099 9.5625 13.625 C11.20613134 14.34659424 12.87300386 15.01851421 14.5625 15.625 C15.0575 17.11 15.0575 17.11 15.5625 18.625 C11.56797824 17.25544968 8.64090246 15.5323801 5.5625 12.625 C4.921875 10.4921875 4.921875 10.4921875 4.5625 8.625 C1.35418609 8.5957517 -1.85409307 8.57811811 -5.0625 8.5625 C-5.96613281 8.55412109 -6.86976562 8.54574219 -7.80078125 8.53710938 C-12.46654289 8.52008105 -16.84763285 8.65670577 -21.4375 9.625 C-21.5303125 10.9553125 -21.5303125 10.9553125 -21.625 12.3125 C-22.81718819 17.17295953 -25.23734689 19.27761941 -29.453125 21.859375 C-35.03854352 24.71067256 -39.36160261 25.05246987 -45.4375 23.625 C-46.4275 23.295 -47.4175 22.965 -48.4375 22.625 C-50.72247559 24.11157473 -52.76697939 25.60488554 -54.875 27.3125 C-55.44798828 27.76044922 -56.02097656 28.20839844 -56.61132812 28.66992188 C-58.24473758 29.96123637 -59.84541611 31.2832193 -61.4375 32.625 C-62.22253906 33.285 -63.00757812 33.945 -63.81640625 34.625 C-65.88426892 37.17619443 -65.90072396 38.68741729 -65.9375 41.9375 C-66.34449059 48.72972067 -68.38496698 52.83547509 -73.25 57.6875 C-76.4375 59.625 -76.4375 59.625 -80.3125 58.9375 C-81.34375 58.504375 -82.375 58.07125 -83.4375 57.625 C-82.15069955 54.14451116 -80.6468652 51.19214879 -78.5625 48.125 C-78.03527344 47.33867188 -77.50804687 46.55234375 -76.96484375 45.7421875 C-75.4375 43.625 -75.4375 43.625 -73.125 41.25 C-70.80930225 37.6478035 -70.95485703 34.42007268 -70.6953125 30.2109375 C-70.167678 24.91860362 -67.23664119 21.98876901 -63.23657227 18.69921875 C-60.00305567 16.76849911 -56.67627331 17.00074121 -53 17.0625 C-46.46224117 17.13804744 -42.98215667 16.15401089 -37.4375 12.625 C-35.56393722 11.82098101 -33.66859013 11.06470715 -31.75 10.375 C-30.83863281 10.03984375 -29.92726562 9.7046875 -28.98828125 9.359375 C-26.4375 8.625 -26.4375 8.625 -22.4375 8.625 C-22.210625 8.068125 -21.98375 7.51125 -21.75 6.9375 C-16.89125995 -1.62313722 -8.8191019 -3.52764076 0 0 Z " fill="#869DA1" transform="translate(113.4375,16.375)"/>
<path d="M0 0 C0.33 0 0.66 0 1 0 C1 3.3 1 6.6 1 10 C2.32 9.67 3.64 9.34 5 9 C4.34 9.99 3.68 10.98 3 12 C2.53656612 15.25261926 2.23901922 18.50070103 1.953125 21.7734375 C0.93090789 25.23389379 -0.31070874 26.92696117 -3.22119141 29.07519531 C-6.29389904 30.67269964 -9.4338989 30.69755536 -12.8125 30.6875 C-18.79076054 30.8516549 -24.21518397 31.45049571 -30 33 C-30 33.66 -30 34.32 -30 35 C-35.03107929 37.35979329 -39.65835917 37.32444383 -45.13671875 37.4609375 C-48.10297452 37.67111916 -48.10297452 37.67111916 -49.30859375 39.90234375 C-49.53675781 40.59457031 -49.76492187 41.28679687 -50 42 C-52.32599119 45.70044053 -52.32599119 45.70044053 -54.6875 46.75 C-64.05215712 47.76239536 -64.05215712 47.76239536 -67.875 44.6875 C-70 42 -70 42 -72 39 C-74.94264745 38.3044744 -74.94264745 38.3044744 -78.3125 38 C-83.00498573 37.48634136 -86.0940888 36.6967642 -90 34 C-86.19068824 32.73022941 -84.18381007 33.47925493 -80.3125 34.4375 C-78.54326172 34.86869141 -78.54326172 34.86869141 -76.73828125 35.30859375 C-75.38283203 35.65083984 -75.38283203 35.65083984 -74 36 C-76.08285091 31.94392191 -77.86543171 29.95227119 -82 28 C-84.24994735 27.35904196 -86.5239568 26.79794856 -88.8125 26.3125 C-89.97394531 26.06113281 -91.13539062 25.80976563 -92.33203125 25.55078125 C-93.21246094 25.36902344 -94.09289062 25.18726563 -95 25 C-95 24.67 -95 24.34 -95 24 C-87.17203074 23.25051358 -81.56328023 24.60451853 -75 29 C-72.375 31.625 -72.375 31.625 -71 34 C-71 34.99 -71 35.98 -71 37 C-63.41 37 -55.82 37 -48 37 C-47.34 35.35 -46.68 33.7 -46 32 C-44.26846058 29.65912119 -42.35853066 27.71267385 -40 26 C-37.125 25.625 -37.125 25.625 -35 26 C-39.75 29.82638889 -39.75 29.82638889 -42.25 31.5625 C-44.28790186 32.97645514 -44.28790186 32.97645514 -45 36 C-41.7050554 34.88444501 -38.41468265 33.75596866 -35.125 32.625 C-34.18785156 32.30789062 -33.25070313 31.99078125 -32.28515625 31.6640625 C-30.94130859 31.2 -30.94130859 31.2 -29.5703125 30.7265625 C-28.74289551 30.44377441 -27.91547852 30.16098633 -27.06298828 29.86962891 C-24.82945622 29.08073272 -24.82945622 29.08073272 -23 27 C-26.63 26.67 -30.26 26.34 -34 26 C-30.26479817 23.50986545 -28.4346253 23.77826874 -24 24 C-22.906875 24.309375 -21.81375 24.61875 -20.6875 24.9375 C-14.80308555 25.03723584 -11.46690401 21.52650317 -7 18 C-6.0409375 17.443125 -6.0409375 17.443125 -5.0625 16.875 C-3.10813564 15.78832219 -3.10813564 15.78832219 -1 13 C-0.21073872 8.6617115 -0.01289554 4.40382569 0 0 Z " fill="#BBC8CB" transform="translate(167,161)"/>
<path d="M0 0 C2.97 0 5.94 0 9 0 C9 24.09 9 48.18 9 73 C6.69 73 4.38 73 2 73 C2 52.54 2 32.08 2 11 C1.01 11.33 0.02 11.66 -1 12 C-0.67 8.04 -0.34 4.08 0 0 Z " fill="#F9FAFA" transform="translate(133,71)"/>
<path d="M0 0 C0.66 0.99 1.32 1.98 2 3 C6.1734418 8.29011947 10.79060093 14.08752389 17 17 C19.25681476 17.04298695 21.22403578 16.68039582 23.4375 16.25 C29.77767708 15.63144614 37.33722277 17.57432906 42.6875 21.0625 C45 23 45 23 47 25 C47 25.99 47 26.98 47 28 C44.59965661 27.7644757 42.19990461 27.52506087 39.80078125 27.27734375 C38.05001791 27.10397667 36.29740388 26.94750077 34.54296875 26.81640625 C33.78628906 26.75324219 33.02960938 26.69007813 32.25 26.625 C31.23679687 26.55152344 31.23679687 26.55152344 30.203125 26.4765625 C28 26 28 26 25.16796875 24.4921875 C21.57953595 22.80195158 19.00713706 22.60460916 15.0625 22.5 C7.1003083 22.05626061 1.67688022 20.67158728 -3.90234375 14.67578125 C-5.81220116 11.76002029 -5.48653409 9.34492185 -5 6 C-4 3.0625 -4 3.0625 -3 1 C-2.67 1.66 -2.34 2.32 -2 3 C-1.34 3 -0.68 3 0 3 C0 2.01 0 1.02 0 0 Z " fill="#91A5A9" transform="translate(46,169)"/>
<path d="M0 0 C11.22366214 0.55925464 11.22366214 0.55925464 16.5625 2.5625 C22.32394463 4.55179359 28.13560319 4.08403442 34.13696289 3.62524414 C38.72388955 3.42105588 41.34683827 3.79196859 44.95703125 6.76171875 C48.11583172 9.72441368 49.89008868 12.42606993 50.1953125 16.796875 C50.17210937 17.77140625 50.14890625 18.7459375 50.125 19.75 C50.10695312 20.73484375 50.08890625 21.7196875 50.0703125 22.734375 C50.04710937 23.48203125 50.02390625 24.2296875 50 25 C48 25 48 25 45.8125 22.875 C45.37421875 22.41996094 44.9359375 21.96492188 44.484375 21.49609375 C36.69532487 13.50123415 36.69532487 13.50123415 26.75 9.6875 C24.04228935 9.83578687 24.04228935 9.83578687 22 11 C16.71089889 11.40253336 11.78709845 11.55311917 7 9 C7 8.34 7 7.68 7 7 C6.21625 6.773125 5.4325 6.54625 4.625 6.3125 C1.34141063 4.67070532 1.16268853 3.36310374 0 0 Z " fill="#97ABAF" transform="translate(121,25)"/>
<path d="M0 0 C2.5625 1.625 2.5625 1.625 4.5625 3.625 C6.72090057 4.1981122 6.72090057 4.1981122 9.1875 4.5625 C13.92181133 5.43317795 18.11777234 6.81877601 22.5625 8.625 C24.06101343 9.19144837 25.56098986 9.7540436 27.0625 10.3125 C28.2175 10.745625 29.3725 11.17875 30.5625 11.625 C30.2325 12.285 29.9025 12.945 29.5625 13.625 C28.47710937 13.34785156 27.39171875 13.07070313 26.2734375 12.78515625 C24.82815719 12.4191437 23.38284288 12.0532654 21.9375 11.6875 C21.22464844 11.50509766 20.51179688 11.32269531 19.77734375 11.13476562 C15.72280687 10.11183201 11.70302941 9.24542633 7.5625 8.625 C8.20171965 11.10127099 8.20171965 11.10127099 9.5625 13.625 C11.20613134 14.34659424 12.87300386 15.01851421 14.5625 15.625 C15.0575 17.11 15.0575 17.11 15.5625 18.625 C11.56797824 17.25544968 8.64090246 15.5323801 5.5625 12.625 C4.921875 10.4921875 4.921875 10.4921875 4.5625 8.625 C1.35418609 8.5957517 -1.85409307 8.57811811 -5.0625 8.5625 C-5.96613281 8.55412109 -6.86976562 8.54574219 -7.80078125 8.53710938 C-12.46654289 8.52008105 -16.84763285 8.65670577 -21.4375 9.625 C-21.5303125 10.9553125 -21.5303125 10.9553125 -21.625 12.3125 C-22.81718819 17.17295953 -25.23734689 19.27761941 -29.453125 21.859375 C-34.80480458 24.59135129 -39.59841951 25.47577998 -45.4375 23.625 C-45.7675 22.965 -46.0975 22.305 -46.4375 21.625 C-45.7775 20.965 -45.1175 20.305 -44.4375 19.625 C-44.4375 20.285 -44.4375 20.945 -44.4375 21.625 C-36.84306959 22.16745931 -31.83604462 20.5006916 -26 15.5625 C-24.23782925 13.60829184 -24.23782925 13.60829184 -23.4375 10.625 C-24.4275 10.625 -25.4175 10.625 -26.4375 10.625 C-26.4375 9.965 -26.4375 9.305 -26.4375 8.625 C-25.1175 8.625 -23.7975 8.625 -22.4375 8.625 C-22.210625 8.068125 -21.98375 7.51125 -21.75 6.9375 C-16.89125995 -1.62313722 -8.8191019 -3.52764076 0 0 Z " fill="#96A9AE" transform="translate(113.4375,16.375)"/>
<path d="M0 0 C0.68707555 2.49064888 1 4.37886292 1 7 C1.66 7 2.32 7 3 7 C3 27.46 3 47.92 3 69 C5.31 69 7.62 69 10 69 C10 69.33 10 69.66 10 70 C7.36 70 4.72 70 2 70 C1.505 41.29 1.505 41.29 1 12 C-4.17612877 28.5137306 -4.17612877 28.5137306 -9.35107422 45.02783203 C-10.00223591 47.10450559 -10.65343764 49.18116659 -11.3046875 51.2578125 C-11.63992432 52.32829834 -11.97516113 53.39878418 -12.32055664 54.50170898 C-13.84099428 59.34831624 -15.36751803 64.18961981 -17 69 C-18.04449911 65.86650268 -17.93423645 65.01031744 -17 62 C-17.66 62 -18.32 62 -19 62 C-18.40524649 56.9644203 -17.32887638 52.45811244 -15.7421875 47.6171875 C-15.51808701 46.92830444 -15.29398651 46.23942139 -15.06309509 45.52966309 C-14.3392969 43.30957667 -13.60732205 41.09228765 -12.875 38.875 C-12.37544507 37.34861729 -11.87634245 35.82208648 -11.37768555 34.29541016 C-9.92694897 29.86078931 -8.4653375 25.42981482 -7 21 C-6.60280762 19.79859375 -6.20561523 18.5971875 -5.79638672 17.359375 C-3.87838322 11.56813011 -1.94711021 5.78152179 0 0 Z " fill="#C7D1D3" transform="translate(132,75)"/>
<path d="M0 0 C-0.47699881 4.29298926 -2.79803025 6.28528652 -6 9 C-10.50208097 11.37382451 -13.91353855 12.46240559 -19 12 C-19.99 11.67 -20.98 11.34 -22 11 C-26.49084423 12.83097781 -29.93901965 15.38508703 -33.625 18.5 C-36.69847738 21.0827541 -39.76056854 23.62745865 -43 26 C-43.66 25.34 -44.32 24.68 -45 24 C-39.85437922 19.37441536 -34.58327587 15.08775555 -29 11 C-32.96 10.67 -36.92 10.34 -41 10 C-36.8651398 5.8651398 -33.02382661 6.56535674 -27.51171875 6.56054688 C-21.86685341 6.41618965 -18.72701868 5.09701224 -14 2 C-8.78440251 -0.70093441 -5.76010186 -1.29308409 0 0 Z " fill="#8EA3A8" transform="translate(90,27)"/>
<path d="M0 0 C-0.99 0.33 -1.98 0.66 -3 1 C-4.44512762 3.2468659 -4.44512762 3.2468659 -5.75 6 C-8.56720123 11.3547795 -11.52430736 16.84330921 -16 21 C-17.66198121 21.35595978 -19.32861635 21.69118681 -21 22 C-21.66 22.99 -22.32 23.98 -23 25 C-24.03239711 10.31701891 -24.03239711 10.31701891 -20.375 5.25 C-15.36517643 -0.15873224 -6.86459137 -4.66792213 0 0 Z " fill="#8CA1A6" transform="translate(189,149)"/>
<path d="M0 0 C-0.33 0.66 -0.66 1.32 -1 2 C-2.65 2 -4.3 2 -6 2 C-6.1340625 2.70640625 -6.268125 3.4128125 -6.40625 4.140625 C-7.00882051 7.04247771 -7.74208683 9.88508822 -8.5 12.75 C-9.79910895 17.85184049 -10.48552853 22.76954003 -11 28 C-11.33 28.33 -11.66 28.66 -12 29 C-12.23363881 30.84891946 -12.41303635 32.70488031 -12.5625 34.5625 C-12.64628906 35.57441406 -12.73007812 36.58632812 -12.81640625 37.62890625 C-12.90728516 38.80259766 -12.90728516 38.80259766 -13 40 C-13.33 40 -13.66 40 -14 40 C-14.06058594 38.95199219 -14.12117188 37.90398437 -14.18359375 36.82421875 C-14.26801738 35.44529952 -14.35266447 34.06639395 -14.4375 32.6875 C-14.47681641 31.99720703 -14.51613281 31.30691406 -14.55664062 30.59570312 C-14.74927415 27.52838465 -15.02322717 24.93031848 -16 22 C-16.66 22 -17.32 22 -18 22 C-19.41987763 16.3204895 -19.81723414 11.16567048 -17.75 5.6875 C-15.28182691 1.89709132 -13.51398119 0.39495161 -9.125 -0.75 C-5.87489864 -1.01000811 -3.1781826 -0.68103913 0 0 Z " fill="#A1B3B6" transform="translate(36,75)"/>
<path d="M0 0 C7.82796926 -0.74948642 13.43671977 0.60451853 20 5 C22.625 7.625 22.625 7.625 24 10 C24 10.99 24 11.98 24 13 C25.18078125 12.98839844 26.3615625 12.97679687 27.578125 12.96484375 C29.13541508 12.95546248 30.69270688 12.94636264 32.25 12.9375 C33.02730469 12.92912109 33.80460937 12.92074219 34.60546875 12.91210938 C35.73662109 12.90727539 35.73662109 12.90727539 36.890625 12.90234375 C37.92751465 12.89448853 37.92751465 12.89448853 38.98535156 12.88647461 C41.09973898 13.00562029 42.96641515 13.42381763 45 14 C44.67 14.66 44.34 15.32 44 16 C38.06 15.67 32.12 15.34 26 15 C30.11426708 19.97791744 30.11426708 19.97791744 33.1328125 20.5234375 C36.26973767 20.28970582 39.00437152 19.99854283 42 19 C42 19.99 42 20.98 42 22 C38.1235043 23.29216523 34.02308045 23.72783364 30 23 C26.96277803 20.55701712 25.15575567 18.2336335 23 15 C20.05735255 14.3044744 20.05735255 14.3044744 16.6875 14 C11.99501427 13.48634136 8.9059112 12.6967642 5 10 C8.80931176 8.73022941 10.81618993 9.47925493 14.6875 10.4375 C15.86699219 10.72496094 17.04648438 11.01242188 18.26171875 11.30859375 C19.61716797 11.65083984 19.61716797 11.65083984 21 12 C18.91714909 7.94392191 17.13456829 5.95227119 13 4 C10.75005265 3.35904196 8.4760432 2.79794856 6.1875 2.3125 C5.02605469 2.06113281 3.86460938 1.80976563 2.66796875 1.55078125 C1.78753906 1.36902344 0.90710938 1.18726563 0 1 C0 0.67 0 0.34 0 0 Z " fill="#A2B3B6" transform="translate(72,185)"/>
<path d="M0 0 C0.68707555 2.49064888 1 4.37886292 1 7 C1.66 7 2.32 7 3 7 C3 27.46 3 47.92 3 69 C5.31 69 7.62 69 10 69 C10 69.33 10 69.66 10 70 C7.36 70 4.72 70 2 70 C1.505 41.29 1.505 41.29 1 12 C-0.65 17.28 -2.3 22.56 -4 28 C-4.99 27.01 -5.98 26.02 -7 25 C-6.79681878 18.91767188 -5.05236442 13.66253723 -2.9375 8 C-2.65583984 7.22527344 -2.37417969 6.45054688 -2.08398438 5.65234375 C-1.39679702 3.76549033 -0.69945987 1.88233849 0 0 Z " fill="#BDC9CC" transform="translate(132,75)"/>
<path d="M0 0 C0.66 0 1.32 0 2 0 C2 0.66 2 1.32 2 2 C3.2684375 2.309375 3.2684375 2.309375 4.5625 2.625 C9.15309835 4.46123934 13.72894274 7.45788548 16 12 C16.23553948 16.23971058 16.32845886 19.36178302 14 23 C13.34 23 12.68 23 12 23 C10.59817001 20.94041114 9.31559268 18.89750195 8.0625 16.75 C5.35013338 12.12823283 5.35013338 12.12823283 2.24609375 7.765625 C1 6 1 6 1 3 C0.34 2.67 -0.32 2.34 -1 2 C-0.67 1.34 -0.34 0.68 0 0 Z " fill="#A0B1B5" transform="translate(32,149)"/>
<path d="M0 0 C5.34367218 1.88600195 9.8145104 4.2217656 13 9 C13.8499327 14.22101516 12.01183769 17.20958677 9.2890625 21.4609375 C8.86367187 21.96882813 8.43828125 22.47671875 8 23 C7.34 23 6.68 23 6 23 C5.73445312 21.84242187 5.46890625 20.68484375 5.1953125 19.4921875 C4.83869236 17.95309007 4.48191309 16.41402952 4.125 14.875 C3.95097656 14.11445312 3.77695313 13.35390625 3.59765625 12.5703125 C2.60201572 8.29274576 1.47028611 4.14594191 0 0 Z " fill="#123F48" transform="translate(188,73)"/>
<path d="M0 0 C8.27172714 -0.41745165 15.80868611 -0.27126938 22.5625 5 C24 7 24 7 24 10 C14.82539227 9.95682538 7.25829106 6.6006149 -1 3 C-0.67 2.01 -0.34 1.02 0 0 Z " fill="#133E48" transform="translate(69,187)"/>
<path d="M0 0 C8.9565432 0.17468435 15.93994364 2.1271715 24 6 C24 6.66 24 7.32 24 8 C19.18116193 10.40941904 11.70931955 9.83085799 6.65625 8.28125 C2.69134077 6.19799261 1.43080682 4.0889882 0 0 Z " fill="#15404A" transform="translate(121,25)"/>
<path d="M0 0 C0.66 0.33 1.32 0.66 2 1 C0.68 2.65 -0.64 4.3 -2 6 C8.89 6.495 8.89 6.495 20 7 C20 7.33 20 7.66 20 8 C19.42556152 8.02505615 18.85112305 8.0501123 18.25927734 8.07592773 C15.63100279 8.19269875 13.00301605 8.31505419 10.375 8.4375 C9.47136719 8.47681641 8.56773438 8.51613281 7.63671875 8.55664062 C3.01783854 8.77578458 -1.45153636 9.1008851 -6 10 C-6.0928125 11.3303125 -6.0928125 11.3303125 -6.1875 12.6875 C-7.37968819 17.54795953 -9.79984689 19.65261941 -14.015625 22.234375 C-19.36730458 24.96635129 -24.16091951 25.85077998 -30 24 C-30.33 23.34 -30.66 22.68 -31 22 C-30.34 21.34 -29.68 20.68 -29 20 C-29 20.66 -29 21.32 -29 22 C-21.40556959 22.54245931 -16.39854462 20.8756916 -10.5625 15.9375 C-8.80032925 13.98329184 -8.80032925 13.98329184 -8 11 C-8.99 11 -9.98 11 -11 11 C-11 10.34 -11 9.68 -11 9 C-9.68 9 -8.36 9 -7 9 C-6.773125 8.443125 -6.54625 7.88625 -6.3125 7.3125 C-4.64103234 4.36753316 -2.44723648 2.31843456 0 0 Z " fill="#99ABAF" transform="translate(98,16)"/>
<path d="M0 0 C2.662062 0.3832143 5.32819962 0.68828996 8 1 C8 1.99 8 2.98 8 4 C5.64960987 4.98916033 3.29533139 5.96636681 0.9375 6.9375 C0.28072266 7.21529297 -0.37605469 7.49308594 -1.05273438 7.77929688 C-5.40016919 9.55681948 -9.32492583 10.5197258 -14 11 C-13.61479436 8.46089803 -13.29902057 7.27248877 -11.37109375 5.515625 C-10.73300781 5.09796875 -10.09492187 4.6803125 -9.4375 4.25 C-8.79683594 3.82203125 -8.15617187 3.3940625 -7.49609375 2.953125 C-7.00238281 2.63859375 -6.50867188 2.3240625 -6 2 C-6.33 1.34 -6.66 0.68 -7 0 C-3.64629821 -1.1179006 -3.24364156 -0.87665988 0 0 Z " fill="#234B54" transform="translate(136,186)"/>
<path d="M0 0 C-1.41047062 3.8403903 -3.19329982 7.16667177 -5.375 10.625 C-5.96023437 11.56601563 -6.54546875 12.50703125 -7.1484375 13.4765625 C-8.91869156 15.88918723 -10.515463 17.36918056 -13 19 C-13.62693289 8.08091878 -13.62693289 8.08091878 -11.1875 3.875 C-7.22992939 0.48279662 -5.1602163 -0.22934295 0 0 Z " fill="#0B3842" transform="translate(182,151)"/>
<path d="M0 0 C3.85817949 1.5718509 6.110257 4.04458102 9 7 C11.12399802 8.87085859 13.26946066 10.71340463 15.42578125 12.546875 C15.94527344 13.02640625 16.46476562 13.5059375 17 14 C17 14.33 17 14.66 17 15 C11.92918782 15.36076925 8.12397641 15.5619882 3.5 13.25 C-0.26394052 9.86245353 -0.26394052 9.86245353 -1 7 C-0.625 3.25 -0.625 3.25 0 0 Z " fill="#17424C" transform="translate(44,173)"/>
<path d="M0 0 C3.81602252 1.48774446 5.38020852 3.57031278 7.625 6.9375 C8.21539062 7.81277344 8.80578125 8.68804687 9.4140625 9.58984375 C9.93742188 10.38519531 10.46078125 11.18054688 11 12 C11.99 13.485 11.99 13.485 13 15 C13 15.99 13 16.98 13 18 C8.03579471 17.29579575 5.28439735 15.50060643 1.60546875 12.1875 C-1.18172289 8.38986662 -0.65039286 4.48951738 0 0 Z " fill="#19444D" transform="translate(170,51)"/>
<path d="M0 0 C-0.54872468 3.84107278 -2.01918797 5.56828492 -5 8 C-9.49864497 10.33263073 -12.92684531 11.47192137 -18 11 C-18.66 10.67 -19.32 10.34 -20 10 C-19 7 -19 7 -16.41796875 5.4296875 C-14.81888672 4.66011719 -14.81888672 4.66011719 -13.1875 3.875 C-12.12917969 3.35679688 -11.07085937 2.83859375 -9.98046875 2.3046875 C-6.41110721 0.74221469 -3.88434297 0 0 0 Z " fill="#16414A" transform="translate(89,28)"/>
<path d="M0 0 C0.33 0 0.66 0 1 0 C1.08706892 3.27066566 1.14041241 6.54103365 1.1875 9.8125 C1.22520508 11.2056543 1.22520508 11.2056543 1.26367188 12.62695312 C1.27817383 13.9659668 1.27817383 13.9659668 1.29296875 15.33203125 C1.31653442 16.56530151 1.31653442 16.56530151 1.34057617 17.82348633 C0.91954167 20.51418354 0.12785091 21.35491991 -2 23 C-4.1875 23.6875 -4.1875 23.6875 -6 24 C-7.64465707 17.51535214 -6.47613794 10.95227588 -3.5 5 C-3.005 4.34 -2.51 3.68 -2 3 C-1.34 2.01 -0.68 1.02 0 0 Z " fill="#6E898F" transform="translate(194,100)"/>
<path d="M0 0 C0.91007812 0.00902344 1.82015625 0.01804688 2.7578125 0.02734375 C3.45648438 0.03894531 4.15515625 0.05054688 4.875 0.0625 C1.59029745 3.45669263 -1.83197152 6.68157735 -5.3125 9.875 C-6.60220703 11.06029297 -6.60220703 11.06029297 -7.91796875 12.26953125 C-10.125 14.0625 -10.125 14.0625 -12.125 14.0625 C-12.72365471 8.07595291 -12.72365471 8.07595291 -11.08203125 5.296875 C-7.44555965 0.90324949 -5.54037727 -0.07103048 0 0 Z " fill="#16414A" transform="translate(57.125,36.9375)"/>
<path d="M0 0 C0.33 0 0.66 0 1 0 C1 20.13 1 40.26 1 61 C0.67 61 0.34 61 0 61 C-0.33 44.5 -0.66 28 -1 11 C-3.31 17.93 -5.62 24.86 -8 32 C-9.14438267 27.4224693 -8.58794553 25.88147969 -7.12890625 21.484375 C-6.71962891 20.23398438 -6.31035156 18.98359375 -5.88867188 17.6953125 C-5.44683844 16.38013311 -5.00477825 15.06502987 -4.5625 13.75 C-4.12339808 12.41958429 -3.68523606 11.08885798 -3.24804688 9.7578125 C-2.17458259 6.50203071 -1.09158201 3.24974314 0 0 Z " fill="#3B5F67" transform="translate(133,84)"/>
<path d="M0 0 C0.99 0 1.98 0 3 0 C2.46490645 6.68866942 0.2509099 10.3270445 -4 15.375 C-6 17 -6 17 -10 17 C-9.37307684 12.95438646 -7.27725722 10.15112174 -5 6.8125 C-4.278125 5.74644531 -3.55625 4.68039063 -2.8125 3.58203125 C-1 1 -1 1 0 0 Z " fill="#103C45" transform="translate(43,57)"/>
<path d="M0 0 C7.61406844 -0.76140684 7.61406844 -0.76140684 10.8984375 1.04296875 C13.03929768 2.82353782 14.74757112 4.49514224 16 7 C16.039992 8.99960012 16.04346799 11.00047242 16 13 C12.2587946 10.81820014 8.70835268 8.45912809 5.1875 5.9375 C4.21167969 5.24527344 3.23585937 4.55304687 2.23046875 3.83984375 C1.12638672 2.92912109 1.12638672 2.92912109 0 2 C0 1.34 0 0.68 0 0 Z " fill="#19434C" transform="translate(152,31)"/>
<path d="M0 0 C2.42959202 0.97183681 3.7600872 1.64051162 5.23046875 3.84375 C6.54848643 7.53687568 6.47508931 11.13546757 6 15 C4.625 17.5625 4.625 17.5625 3 19 C2.34 19 1.68 19 1 19 C-0.25433458 15.23699626 -0.10695422 11.72789091 -0.0625 7.8125 C-0.05798828 7.06291016 -0.05347656 6.31332031 -0.04882812 5.54101562 C-0.03706354 3.69397617 -0.01912865 1.84697787 0 0 Z " fill="#17424C" transform="translate(24,104)"/>
<path d="M0 0 C-0.73690113 6.48472993 -2.35318751 12.69239743 -4 19 C-4.66 19 -5.32 19 -6 19 C-8.32162129 14.50185875 -8.89678758 9.95923533 -8 5 C-4.2244898 0 -4.2244898 0 0 0 Z " fill="#1A454E" transform="translate(27,78)"/>
<path d="M0 0 C5.94 0 11.88 0 18 0 C16 4 16 4 13 6 C6.0726257 6.67039106 6.0726257 6.67039106 2 4.125 C0 2 0 2 0 0 Z " fill="#1A454E" transform="translate(98,200)"/>
<path d="M0 0 C0.66 0 1.32 0 2 0 C2.35671933 3.83473284 2.29771416 5.55342875 0.125 8.8125 C-2.11514587 11.11853252 -2.97992566 11.95396776 -6.1640625 12.09765625 C-7.38222656 12.08025391 -7.38222656 12.08025391 -8.625 12.0625 C-9.85089844 12.04896484 -9.85089844 12.04896484 -11.1015625 12.03515625 C-12.04128906 12.01775391 -12.04128906 12.01775391 -13 12 C-13 11.34 -13 10.68 -13 10 C-11.25832301 8.6019984 -9.45529359 7.27979397 -7.625 6 C-3.62788786 3.21935232 -3.62788786 3.21935232 0 0 Z " fill="#154049" transform="translate(165,177)"/>
<path d="M0 0 C0.66 0.99 1.32 1.98 2 3 C2.87072072 4.23220174 3.74584102 5.46130459 4.625 6.6875 C5.07101563 7.31011719 5.51703125 7.93273437 5.9765625 8.57421875 C6.31429687 9.04472656 6.65203125 9.51523438 7 10 C6.01 10 5.02 10 4 10 C2.62131719 8.37064759 1.28725907 6.70250393 0 5 C-0.66 4.67 -1.32 4.34 -2 4 C-2.36196378 9.86253712 -2.36196378 9.86253712 0 15 C5.07288529 18.6044185 9.11826555 19.12914929 15.25 19.0625 C16.86648437 19.04896484 16.86648437 19.04896484 18.515625 19.03515625 C19.74539062 19.01775391 19.74539062 19.01775391 21 19 C17.56060073 21.29293284 16.17437319 21.27019638 12.125 21.25 C10.58199219 21.25773437 10.58199219 21.25773437 9.0078125 21.265625 C3.45960263 20.77565322 -0.07061207 18.6754153 -3.83203125 14.7109375 C-5.82432482 11.79246063 -5.49316555 9.39051315 -5 6 C-4 3.0625 -4 3.0625 -3 1 C-2.67 1.66 -2.34 2.32 -2 3 C-1.34 3 -0.68 3 0 3 C0 2.01 0 1.02 0 0 Z " fill="#94A8AC" transform="translate(46,169)"/>
<path d="M0 0 C0.66 0 1.32 0 2 0 C2.34933594 1.12019531 2.69867187 2.24039063 3.05859375 3.39453125 C3.51821405 4.86719222 3.9778503 6.33984821 4.4375 7.8125 C4.66759766 8.55048828 4.89769531 9.28847656 5.13476562 10.04882812 C6.0687184 13.04018411 7.00899104 16.02697312 8 19 C4.65829712 18.0717492 3.06538058 17.07068171 0.6875 14.5 C-1.51170238 9.93869136 -1.57339666 5.99137093 -1 1 C-0.67 0.67 -0.34 0.34 0 0 Z " fill="#1B464F" transform="translate(23,131)"/>
<path d="M0 0 C0.33 0.66 0.66 1.32 1 2 C1.66 2.33 2.32 2.66 3 3 C2.01 3.495 2.01 3.495 1 4 C0.63923075 9.07081218 0.4380118 12.87602359 2.75 17.5 C4.80426769 19.78251966 6.14101815 20.97893505 9 22 C8.34 20.35 7.68 18.7 7 17 C7.99 16.67 8.98 16.34 10 16 C10.59732819 18.76264289 11 21.16032769 11 24 C8 25 8 25 6.28125 24.14453125 C5.6934375 23.70496094 5.105625 23.26539063 4.5 22.8125 C3.9121875 22.38582031 3.324375 21.95914063 2.71875 21.51953125 C-0.24607326 18.89835796 -1.85558717 17.14288006 -2.36328125 13.125 C-2.34652344 12.09375 -2.32976563 11.0625 -2.3125 10 C-2.30669922 8.453125 -2.30669922 8.453125 -2.30078125 6.875 C-2.00770713 4.07366814 -1.44101632 2.38829797 0 0 Z " fill="#89A0A4" transform="translate(22,128)"/>
<path d="M0 0 C0.66 0.33 1.32 0.66 2 1 C2.8814688 3.64440639 3.16174818 5.28060752 3.1875 8 C3.20167969 8.680625 3.21585938 9.36125 3.23046875 10.0625 C3 12 3 12 1 15 C-2.125 15.6875 -2.125 15.6875 -5 16 C-3.41078475 10.63904723 -1.81027062 5.29156027 0 0 Z " fill="#0E3B44" transform="translate(192,131)"/>
<path d="M0 0 C3.0625 1.4375 3.0625 1.4375 5 3 C5 3.33 5 3.66 5 4 C2.60468244 4.33745354 0.20885732 4.6700829 -2.1875 5 C-3.19780273 5.14308594 -3.19780273 5.14308594 -4.22851562 5.2890625 C-7.84664577 5.78324613 -11.34796401 6.11346131 -15 6 C-10.3657792 -0.02448704 -7.44894989 -0.75773801 0 0 Z " fill="#17424C" transform="translate(110,17)"/>
<path d="M0 0 C0.33 0.66 0.66 1.32 1 2 C1.66 2 2.32 2 3 2 C3.33 1.34 3.66 0.68 4 0 C5.79920444 2.22343157 7.5893591 4.45321682 9.375 6.6875 C9.88289062 7.31333984 10.39078125 7.93917969 10.9140625 8.58398438 C15.91432963 14.86721478 15.91432963 14.86721478 17 19 C16.67 19.99 16.34 20.98 16 22 C15.34 21.67 14.68 21.34 14 21 C13.66186776 19.66787558 13.32945597 18.33429669 13 17 C10.00407099 11.7002395 6.49225019 7.09587518 2 3 C2 5.31 2 7.62 2 10 C1.01 10.33 0.02 10.66 -1 11 C-1.125 3.375 -1.125 3.375 0 0 Z " fill="#889DA2" transform="translate(168,48)"/>
<path d="M0 0 C1.051875 0.185625 1.051875 0.185625 2.125 0.375 C-2.625 4.20138889 -2.625 4.20138889 -5.125 5.9375 C-7.16290186 7.35145514 -7.16290186 7.35145514 -7.875 10.375 C-6.8025 10.024375 -5.73 9.67375 -4.625 9.3125 C0.04807692 8.14423077 0.04807692 8.14423077 3.125 9.375 C-0.91617624 11.33040786 -4.47141704 11.67268265 -8.88671875 11.8359375 C-9.54285156 12.01382813 -10.19898437 12.19171875 -10.875 12.375 C-11.9963457 14.2843045 -11.9963457 14.2843045 -12.875 16.375 C-13.865 17.035 -14.855 17.695 -15.875 18.375 C-14.875 16.375 -13.875 14.375 -12.875 12.375 C-14.195 12.045 -15.515 11.715 -16.875 11.375 C-14.895 11.375 -12.915 11.375 -10.875 11.375 C-10.66875 10.67375 -10.4625 9.9725 -10.25 9.25 C-8.07854024 4.70967504 -5.19629955 0.6777782 0 0 Z " fill="#B3C1C4" transform="translate(129.875,186.625)"/>
<path d="M0 0 C0.33 0 0.66 0 1 0 C1.06316406 0.58007812 1.12632812 1.16015625 1.19140625 1.7578125 C2.07963567 7.42378125 3.52061816 10.31508917 8.11328125 13.78125 C10.6480857 15.41863921 13.23818367 16.78749527 16 18 C16.33 17.01 16.66 16.02 17 15 C19.09749995 17.35968744 19.96905704 18.54616994 20.1875 21.75 C20.0946875 22.86375 20.0946875 22.86375 20 24 C19.814375 23.360625 19.62875 22.72125 19.4375 22.0625 C18.963125 21.381875 18.48875 20.70125 18 20 C15.67038557 19.64159778 13.33634657 19.31151288 11 19 C6.17330104 16.25540648 1.79826568 13.39479703 0 8 C-0.12781786 5.32605036 -0.04391871 2.67904143 0 0 Z " fill="#A4B5B8" transform="translate(168,52)"/>
<path d="M0 0 C10.26065411 -0.90981169 10.26065411 -0.90981169 14.28515625 1.1953125 C17.34014791 3.77681288 19.51603509 6.24808873 21 10 C21.1953125 12.359375 21.1953125 12.359375 21.125 14.75 C21.10695312 15.54921875 21.08890625 16.3484375 21.0703125 17.171875 C21.04710937 17.77515625 21.02390625 18.3784375 21 19 C20.34 18.01 19.68 17.02 19 16 C18.34 15.67 17.68 15.34 17 15 C17.0825 14.113125 17.165 13.22625 17.25 12.3125 C16.94530814 8.27533282 15.77959995 6.86135289 13 4 C10.13099945 2.56549973 7.26527087 2.62088917 4.09375 2.37890625 C2 2 2 2 0 0 Z " fill="#92A6AB" transform="translate(150,29)"/>
<path d="M0 0 C0.5775 0.226875 1.155 0.45375 1.75 0.6875 C1.42 2.0075 1.09 3.3275 0.75 4.6875 C0.75 4.0275 0.75 3.3675 0.75 2.6875 C-3.48084903 4.37557908 -3.48084903 4.37557908 -6.25 7.6875 C-6.56006092 12.32929429 -6.64629209 17.21936532 -5.25 21.6875 C-4.59 22.0175 -3.93 22.3475 -3.25 22.6875 C-4.24 23.0175 -5.23 23.3475 -6.25 23.6875 C-6.25 23.0275 -6.25 22.3675 -6.25 21.6875 C-6.91 21.6875 -7.57 21.6875 -8.25 21.6875 C-9.66987763 16.0079895 -10.06723414 10.85317048 -8 5.375 C-4.12677725 -0.57316351 -4.12677725 -0.57316351 0 0 Z " fill="#94A8AC" transform="translate(26.25,75.3125)"/>
<path d="M0 0 C0.33 0.66 0.66 1.32 1 2 C7.435 1.505 7.435 1.505 14 1 C10.59272676 2.70363662 9.33593033 3.24328376 5.8125 3.5 C1.09736109 3.93078512 -3.40493766 4.88110775 -8 6 C-8 6.66 -8 7.32 -8 8 C-12.43076923 10.09230769 -12.43076923 10.09230769 -15.3125 9.625 C-15.869375 9.41875 -16.42625 9.2125 -17 9 C-13.30627457 6.53751638 -10.01559923 4.5249309 -5.875 2.9375 C-2.68623321 1.87284184 -2.68623321 1.87284184 0 0 Z " fill="#8EA3A7" transform="translate(145,188)"/>
<path d="M0 0 C4.35168065 0.7284335 6.08393718 2.76947386 8.8046875 6.078125 C10.48338914 8.77721392 10.45262267 10.90707841 10 14 C6.14325624 12.5243763 4.78176265 10.52993107 2.75 7 C2.22921875 6.113125 1.7084375 5.22625 1.171875 4.3125 C0 2 0 2 0 0 Z " fill="#1E4851" transform="translate(36,154)"/>
<path d="M0 0 C6.0067463 -0.31614454 9.46338768 0.42261151 15 3 C18.31095226 4.07934126 21.64997976 5.04959184 25 6 C25 6.99 25 7.98 25 9 C23.38931641 8.566875 23.38931641 8.566875 21.74609375 8.125 C20.31001239 7.74955389 18.87380779 7.37457895 17.4375 7 C16.73302734 6.80921875 16.02855469 6.6184375 15.30273438 6.421875 C10.72939791 5.24165914 6.72223635 4.80143027 2 5 C2 4.34 2 3.68 2 3 C3.32 2.67 4.64 2.34 6 2 C3.03 1.505 3.03 1.505 0 1 C0 0.67 0 0.34 0 0 Z " fill="#718B91" transform="translate(118,21)"/>
<path d="M0 0 C-1.423125 0.8971875 -1.423125 0.8971875 -2.875 1.8125 C-5.91044395 3.93731076 -7.66138958 5.32930897 -8.4140625 9.04296875 C-8.48367187 9.75066406 -8.55328125 10.45835938 -8.625 11.1875 C-8.74875 12.445625 -8.8725 13.70375 -9 15 C-8.34 15 -7.68 15 -7 15 C-7 18.96 -7 22.92 -7 27 C-7.66 27.33 -8.32 27.66 -9 28 C-8.96744792 25.94921875 -8.93489583 23.8984375 -8.90234375 21.84765625 C-8.79438816 19.98267859 -8.79438816 19.98267859 -10 19 C-10.18063984 16.54507499 -10.27801743 14.14495751 -10.3125 11.6875 C-10.34150391 11.01009766 -10.37050781 10.33269531 -10.40039062 9.63476562 C-10.44403221 6.20050879 -10.26708246 4.35250329 -8.16796875 1.58203125 C-5.02523966 -0.7113116 -3.75231004 -1.25077001 0 0 Z " fill="#9BADB1" transform="translate(54,37)"/>
<path d="M0 0 C0.66 0.33 1.32 0.66 2 1 C0.68 2.65 -0.64 4.3 -2 6 C5.26 6.33 12.52 6.66 20 7 C20 7.33 20 7.66 20 8 C19.42032471 8.02505615 18.84064941 8.0501123 18.2434082 8.07592773 C15.59957893 8.19246234 12.95605591 8.31492682 10.3125 8.4375 C8.94448242 8.49647461 8.94448242 8.49647461 7.54882812 8.55664062 C6.66259766 8.59853516 5.77636719 8.64042969 4.86328125 8.68359375 C4.05157471 8.72025146 3.23986816 8.75690918 2.40356445 8.79467773 C-0.12144485 9.01037431 -2.52600697 9.45899452 -5 10 C-5.3125 7.8125 -5.3125 7.8125 -5 5 C-2.5 2.1875 -2.5 2.1875 0 0 Z " fill="#82999E" transform="translate(98,16)"/>
<path d="M0 0 C6.60273573 0.92669975 9.49706574 2.92222446 13.84765625 7.9296875 C15 10 15 10 14.68359375 12.2578125 C14.45800781 12.83273438 14.23242188 13.40765625 14 14 C14 13.01 14 12.02 14 11 C13.01 10.67 12.02 10.34 11 10 C10.4225 9.401875 9.845 8.80375 9.25 8.1875 C6.41123188 5.42758655 3.48194194 3.87489181 0 2 C0 1.34 0 0.68 0 0 Z " fill="#869DA2" transform="translate(188,71)"/>
<path d="M0 0 C0.66 0.33 1.32 0.66 2 1 C2.78208372 3.42003263 3.45246626 5.78666983 4.0625 8.25 C4.23587891 8.91902344 4.40925781 9.58804688 4.58789062 10.27734375 C5.49951662 13.8330344 6.32185652 17.39255632 7 21 C6.34 21 5.68 21 5 21 C4.32532438 19.25307205 3.66055844 17.50231475 3 15.75 C2.62875 14.77546875 2.2575 13.8009375 1.875 12.796875 C1 10 1 10 1 6 C0.34 6 -0.32 6 -1 6 C-0.67 4.02 -0.34 2.04 0 0 Z " fill="#A6B6BA" transform="translate(24,124)"/>
<path d="M0 0 C-0.33 0.66 -0.66 1.32 -1 2 C-5.59854015 1.23357664 -5.59854015 1.23357664 -7.71875 0 C-10.88741365 -1.38900324 -13.80760976 -1.4337561 -17.25 -1.625 C-19.14492188 -1.73714844 -19.14492188 -1.73714844 -21.078125 -1.8515625 C-22.04234375 -1.90054688 -23.0065625 -1.94953125 -24 -2 C-24 -2.33 -24 -2.66 -24 -3 C-15.05062122 -4.17044189 -8.23364355 -3.86477146 0 0 Z " fill="#80989D" transform="translate(78,193)"/>
<path d="M0 0 C3 1 3 1 4.625 4.0625 C6.18152625 8.04852489 6.78272561 11.72693707 7 16 C6.34 16.66 5.68 17.32 5 18 C4.35105763 15.93847611 3.7059736 13.87573742 3.0625 11.8125 C2.52302734 10.08966797 2.52302734 10.08966797 1.97265625 8.33203125 C1.16243964 5.55646994 0.50865693 2.84312452 0 0 Z " fill="#7F979C" transform="translate(186,74)"/>
<path d="M0 0 C0.35729936 1.32711192 0.68325425 2.66262906 1 4 C1.3403125 5.3303125 1.3403125 5.3303125 1.6875 6.6875 C2.09358475 10.9919983 1.46706904 14.92480822 0 19 C-0.66 19.33 -1.32 19.66 -2 20 C-1.67 17.69 -1.34 15.38 -1 13 C-1.66 13 -2.32 13 -3 13 C-2.45144652 8.428721 -1.58255197 4.32564205 0 0 Z " fill="#AEBDC0" transform="translate(116,124)"/>
<path d="M0 0 C3.74670984 2.66213594 5.89541254 4.48123313 7 9 C7.24656465 12.0217285 7.40214013 14.98986285 7 18 C6.34 18.66 5.68 19.32 5 20 C4.94392578 18.89591797 4.94392578 18.89591797 4.88671875 17.76953125 C4.43947503 11.13103132 3.84007031 6.84007031 -1 2 C-0.67 1.34 -0.34 0.68 0 0 Z " fill="#97ABAF" transform="translate(25,101)"/>
<path d="M0 0 C0.66 0 1.32 0 2 0 C3.33998624 6.21266345 3.33998624 6.21266345 1.8125 9.75 C-0.06958445 12.08638069 -1.34272415 13.59754886 -4 15 C-7.75 15.1875 -7.75 15.1875 -11 15 C-10.46375 14.7525 -9.9275 14.505 -9.375 14.25 C-3.83772107 11.52338331 -3.83772107 11.52338331 0 7 C0.04022391 4.6670134 0.04320247 2.33293334 0 0 Z " fill="#9EB0B3" transform="translate(166,176)"/>
<path d="M0 0 C0.33 0 0.66 0 1 0 C1.05402274 2.10388569 1.09280256 4.20816714 1.125 6.3125 C1.14820313 7.48425781 1.17140625 8.65601562 1.1953125 9.86328125 C1 13 1 13 -1 16 C-2.79904778 14.20095222 -2.17296543 11.54936549 -2.1875 9.125 C-2.20167969 8.05507812 -2.21585938 6.98515625 -2.23046875 5.8828125 C-2 3 -2 3 0 0 Z " fill="#103D47" transform="translate(191,105)"/>
<path d="M0 0 C3.86326289 0.80071902 6.07475007 2.3185209 9 5 C9 5.66 9 6.32 9 7 C9.66 7 10.32 7 11 7 C11 5.35 11 3.7 11 2 C11.33 2 11.66 2 12 2 C12.33 5.3 12.66 8.6 13 12 C11 12 11 12 8.75 9.9375 C5.68609749 6.75469978 2.83780971 3.38391742 0 0 Z " fill="#94A8AC" transform="translate(158,38)"/>
<path d="M0 0 C2.71509341 0.55061335 5.32899112 1.25024312 8 2 C8 2.66 8 3.32 8 4 C8.66 4.33 9.32 4.66 10 5 C7.69 5 5.38 5 3 5 C3 4.34 3 3.68 3 3 C-1.29 2.67 -5.58 2.34 -10 2 C-6.23833409 -0.50777727 -4.47445973 -0.2934072 0 0 Z " fill="#BECACC" transform="translate(143,185)"/>
<path d="M0 0 C1.69270833 1.00911458 3.38541667 2.01822917 5.078125 3.02734375 C9.123674 5.07478623 12.75199233 5.11139139 17.25 5.0625 C18.86648437 5.04896484 18.86648437 5.04896484 20.515625 5.03515625 C21.74539062 5.01775391 21.74539062 5.01775391 23 5 C19.56060073 7.29293284 18.17437319 7.27019638 14.125 7.25 C12.58199219 7.25773438 12.58199219 7.25773438 11.0078125 7.265625 C7.11356035 6.92171702 4.20961106 6.00105743 1.1875 3.5 C0 2 0 2 0 0 Z " fill="#B7C4C7" transform="translate(44,183)"/>
<path d="M0 0 C1.9169986 0.31045732 3.83358723 0.62344671 5.75 0.9375 C7.35101563 1.19853516 7.35101563 1.19853516 8.984375 1.46484375 C11.36347593 1.88704171 13.66915211 2.37202884 16 3 C16.33 2.34 16.66 1.68 17 1 C17 1.99 17 2.98 17 4 C11.0558452 5.39118517 6.52539622 4.69155567 1 2 C0.67 1.34 0.34 0.68 0 0 Z " fill="#93A7AB" transform="translate(77,194)"/>
<path d="M0 0 C0.66 0.99 1.32 1.98 2 3 C1.37498605 4.68272986 0.69822617 6.34630643 0 8 C-0.46043573 10.66359596 -0.72622088 13.30783867 -1 16 C-1.66 15.67 -2.32 15.34 -3 15 C-3.3152595 9.01006953 -2.68219822 5.36439644 0 0 Z " fill="#8AA0A5" transform="translate(189,103)"/>
<path d="M0 0 C1.46513058 0.01988865 2.93011492 0.05558907 4.39453125 0.10546875 C5.14412109 0.11900391 5.89371094 0.13253906 6.66601562 0.14648438 C8.51332892 0.18178336 10.36027191 0.23558958 12.20703125 0.29296875 C12.20703125 0.62296875 12.20703125 0.95296875 12.20703125 1.29296875 C10.22703125 1.62296875 8.24703125 1.95296875 6.20703125 2.29296875 C6.20703125 2.62296875 6.20703125 2.95296875 6.20703125 3.29296875 C1.91703125 3.29296875 -2.37296875 3.29296875 -6.79296875 3.29296875 C-3.79296875 0.29296875 -3.79296875 0.29296875 0 0 Z " fill="#58777E" transform="translate(55.79296875,33.70703125)"/>
<path d="M0 0 C5.02833307 1.43666659 7.16658908 3.74988363 10 8 C9.8125 10.875 9.8125 10.875 9 13 C8.74476562 12.42636719 8.48953125 11.85273438 8.2265625 11.26171875 C6.87202344 8.76401775 5.28704991 6.90946008 3.375 4.8125 C0 1.1 0 1.1 0 0 Z " fill="#9BADB1" transform="translate(38,153)"/>
<path d="M0 0 C0.66 0 1.32 0 2 0 C0.51697598 4.44907205 -3.08285501 6.74579392 -7 9 C-7.66 9 -8.32 9 -9 9 C-9.33 9.66 -9.66 10.32 -10 11 C-10.33 10.01 -10.66 9.02 -11 8 C-10.28972656 7.50628906 -9.57945312 7.01257813 -8.84765625 6.50390625 C-7.92855469 5.86324219 -7.00945312 5.22257813 -6.0625 4.5625 C-5.14597656 3.92441406 -4.22945312 3.28632813 -3.28515625 2.62890625 C-1.13879294 1.1939118 -1.13879294 1.1939118 0 0 Z " fill="#9DAFB3" transform="translate(161,178)"/>
<path d="M0 0 C0.33 0 0.66 0 1 0 C1 6.93 1 13.86 1 21 C0.67 21 0.34 21 0 21 C-0.33 16.38 -0.66 11.76 -1 7 C-1.99 7.495 -1.99 7.495 -3 8 C-2.37240135 5.07120629 -1.41377341 2.63904371 0 0 Z " fill="#B7C4C7" transform="translate(193,97)"/>
<path d="M0 0 C0.99 0.33 1.98 0.66 3 1 C-0.16952847 4.26008643 -3.39937989 7.22237877 -7 10 C-7.66 9.34 -8.32 8.68 -9 8 C-8.43410156 7.50628906 -7.86820313 7.01257812 -7.28515625 6.50390625 C-6.55167969 5.86324219 -5.81820312 5.22257812 -5.0625 4.5625 C-4.33160156 3.92441406 -3.60070313 3.28632812 -2.84765625 2.62890625 C-1.87860647 1.77458541 -0.91348825 0.91348825 0 0 Z " fill="#899FA4" transform="translate(54,43)"/>
<path d="M0 0 C0.33 0 0.66 0 1 0 C1.38063221 2.3260857 1.71269945 4.66055264 2 7 C1.67 7.33 1.34 7.66 1 8 C0.76636119 9.84891946 0.58696365 11.70488031 0.4375 13.5625 C0.35371094 14.57441406 0.26992188 15.58632812 0.18359375 16.62890625 C0.12300781 17.41136719 0.06242187 18.19382812 0 19 C-0.33 19 -0.66 19 -1 19 C-1.33 13.39 -1.66 7.78 -2 2 C-1.34 2 -0.68 2 0 2 C0 1.34 0 0.68 0 0 Z " fill="#BAC7C9" transform="translate(23,96)"/>
<path d="M0 0 C0.66 0 1.32 0 2 0 C1.21681311 3.91593446 -0.39179858 7.36406635 -2 11 C-3 8 -3 8 -2 5 C-2.99 5 -3.98 5 -5 5 C-5 4.34 -5 3.68 -5 3 C-3.68 3 -2.36 3 -1 3 C-0.67 2.01 -0.34 1.02 0 0 Z " fill="#A8B9BC" transform="translate(92,22)"/>
<path d="M0 0 C0.66 0.99 1.32 1.98 2 3 C1.5625 5.0625 1.5625 5.0625 1 7 C1.33 7.66 1.66 8.32 2 9 C-1.68754757 8.50168276 -3.60490662 7.89932357 -6 5 C-3.03 5.495 -3.03 5.495 0 6 C-0.66 4.35 -1.32 2.7 -2 1 C-1.34 0.67 -0.68 0.34 0 0 Z " fill="#829A9F" transform="translate(31,144)"/>
<path d="M0 0 C0.33 0.66 0.66 1.32 1 2 C1.66 2 2.32 2 3 2 C3.33 1.34 3.66 0.68 4 0 C4.66 0.99 5.32 1.98 6 3 C5.01 3.495 5.01 3.495 4 4 C3.34 3.67 2.68 3.34 2 3 C2 5.31 2 7.62 2 10 C1.01 10.33 0.02 10.66 -1 11 C-1.125 3.375 -1.125 3.375 0 0 Z " fill="#779196" transform="translate(168,48)"/>
<path d="M0 0 C0.66 0 1.32 0 2 0 C3.78409802 3.06246747 4.22880021 5.22079273 4.125 8.75 C4.10695312 9.54921875 4.08890625 10.3484375 4.0703125 11.171875 C4.03550781 12.07679687 4.03550781 12.07679687 4 13 C3.34 12.01 2.68 11.02 2 10 C1.34 9.67 0.68 9.34 0 9 C0 6.03 0 3.06 0 0 Z " fill="#7F969B" transform="translate(167,35)"/>
<path d="M0 0 C-1.23955495 3.71866485 -3.18554854 5.32283886 -6 8 C-6.66 8.66 -7.32 9.32 -8 10 C-7.7312159 6.05783322 -7.44655191 4.43510186 -4.5625 1.625 C-2 0 -2 0 0 0 Z " fill="#9AADB1" transform="translate(176,150)"/>
<path d="M0 0 C0.66 0.33 1.32 0.66 2 1 C0.69386058 4.91841827 -0.83129848 7.32640809 -4 10 C-4.66 10 -5.32 10 -6 10 C-4.34832443 6.4213696 -2.21713508 3.25179812 0 0 Z " fill="#8EA3A7" transform="translate(44,64)"/>
<path d="M0 0 C0.99 0 1.98 0 3 0 C2.67 2.31 2.34 4.62 2 7 C1.34 6.01 0.68 5.02 0 4 C-1.32 4.99 -2.64 5.98 -4 7 C-2.92598892 4.08482708 -2.22189824 2.22189824 0 0 Z " fill="#31575F" transform="translate(43,57)"/>
<path d="M0 0 C0.99 0.33 1.98 0.66 3 1 C3 4.96 3 8.92 3 13 C2.01 13.495 2.01 13.495 1 14 C1.03255208 11.94921875 1.06510417 9.8984375 1.09765625 7.84765625 C1.20561184 5.98267859 1.20561184 5.98267859 0 5 C-0.04063832 3.33382885 -0.042721 1.66611905 0 0 Z " fill="#B2C0C3" transform="translate(44,51)"/>
<path d="M0 0 C2.64 1.98 5.28 3.96 8 6 C7.34 6.66 6.68 7.32 6 8 C5.0925 7.38125 4.185 6.7625 3.25 6.125 C0.85051183 4.55610389 -1.40961612 3.19556179 -4 2 C-2.68 2 -1.36 2 0 2 C0 1.34 0 0.68 0 0 Z " fill="#82999E" transform="translate(151,31)"/>
<path d="M0 0 C0.33 0 0.66 0 1 0 C1.33 2.97 1.66 5.94 2 9 C2.66 8.34 3.32 7.68 4 7 C4 8.65 4 10.3 4 12 C2.68 12.33 1.36 12.66 0 13 C-1.29676812 8.38926889 -0.71109139 4.66159911 0 0 Z " fill="#658288" transform="translate(188,111)"/>
<path d="M0 0 C0.66 0 1.32 0 2 0 C2 0.99 2 1.98 2 3 C-1.9813783 4.3271261 -5.85045227 4.06915913 -10 4 C-7.24072656 1.24072656 -4.78845948 1.48216757 -1 1 C-0.67 0.67 -0.34 0.34 0 0 Z " fill="#8CA2A6" transform="translate(112,204)"/>
<path d="M0 0 C0.93065133 2.60582371 1.14917407 3.64198224 0.0625 6.25 C-0.4634375 7.11625 -0.4634375 7.11625 -1 8 C-1.66 8 -2.32 8 -3 8 C-4.6875 5.625 -4.6875 5.625 -6 3 C-5.67 2.34 -5.34 1.68 -5 1 C-3.68 1.99 -2.36 2.98 -1 4 C-0.67 2.68 -0.34 1.36 0 0 Z " fill="#B2C1C4" transform="translate(47,164)"/>
<path d="M0 0 C1.32 0.33 2.64 0.66 4 1 C4 1.66 4 2.32 4 3 C4.804375 3.268125 5.60875 3.53625 6.4375 3.8125 C7.283125 4.204375 8.12875 4.59625 9 5 C9.33 5.99 9.66 6.98 10 8 C6.01328937 6.63312778 3.11505367 4.84804907 0 2 C0 1.34 0 0.68 0 0 Z " fill="#859CA0" transform="translate(119,27)"/>
<path d="M0 0 C4.95 0.99 4.95 0.99 10 2 C10 2.33 10 2.66 10 3 C7.69 3 5.38 3 3 3 C3.33 4.32 3.66 5.64 4 7 C1.23609263 4.59660228 0.95934081 3.83736322 0 0 Z " fill="#B0BFC2" transform="translate(117,21)"/>
<path d="M0 0 C0.33 0.66 0.66 1.32 1 2 C1.66 2.33 2.32 2.66 3 3 C2.01 3.495 2.01 3.495 1 4 C0.31270746 6.11846285 0.31270746 6.11846285 -0.125 8.5625 C-0.29257812 9.38878906 -0.46015625 10.21507812 -0.6328125 11.06640625 C-0.75398438 11.70449219 -0.87515625 12.34257812 -1 13 C-1.33 13 -1.66 13 -2 13 C-2.05447047 11.58376784 -2.09300508 10.16691809 -2.125 8.75 C-2.14820312 7.96109375 -2.17140625 7.1721875 -2.1953125 6.359375 C-1.9828378 3.79268059 -1.28654105 2.2083933 0 0 Z " fill="#97AAAF" transform="translate(22,128)"/>
<path d="M0 0 C0.33 0 0.66 0 1 0 C1 2.97 1 5.94 1 9 C0.34 9 -0.32 9 -1 9 C-3.125 4.375 -3.125 4.375 -2 1 C-1.34 1.33 -0.68 1.66 0 2 C0 1.34 0 0.68 0 0 Z " fill="#BBC7CA" transform="translate(192,121)"/>
<path d="M0 0 C2.36574234 3.5486135 2.10865265 4.5764525 1.625 8.6875 C1.51414062 9.68136719 1.40328125 10.67523438 1.2890625 11.69921875 C1.19367187 12.45847656 1.09828125 13.21773437 1 14 C0.67 14 0.34 14 0 14 C-1.33257403 4.58997722 -1.33257403 4.58997722 0 0 Z " fill="#849BA0" transform="translate(24,87)"/>
<path d="M0 0 C4.75 -0.125 4.75 -0.125 7 1 C5.92598892 3.91517292 5.22189824 5.77810176 3 8 C2.375 6.1875 2.375 6.1875 2 4 C2.66 3.01 3.32 2.02 4 1 C2.68 0.67 1.36 0.34 0 0 Z " fill="#7B9499" transform="translate(178,150)"/>
<path d="M0 0 C-0.33 0.66 -0.66 1.32 -1 2 C-4.23097953 2.86159454 -6.22486274 3.30597523 -9.375 2.0625 C-9.91125 1.711875 -10.4475 1.36125 -11 1 C-6.92630576 -1.03684712 -4.41062136 -1.0257259 0 0 Z " fill="#AEBDC0" transform="translate(36,75)"/>
<path d="M0 0 C0.33 1.32 0.66 2.64 1 4 C-0.32 4.99 -1.64 5.98 -3 7 C-4.32 6.34 -5.64 5.68 -7 5 C-6.21625 4.54625 -5.4325 4.0925 -4.625 3.625 C-1.96301969 2.11571258 -1.96301969 2.11571258 0 0 Z " fill="#7D959A" transform="translate(88,31)"/>
<path d="M0 0 C2.97 0.33 5.94 0.66 9 1 C8.67 1.99 8.34 2.98 8 4 C6.35 4 4.7 4 3 4 C3 3.34 3 2.68 3 2 C2.01 1.67 1.02 1.34 0 1 C0 0.67 0 0.34 0 0 Z " fill="#B5C3C6" transform="translate(143,29)"/>
<path d="M0 0 C0.66 0.33 1.32 0.66 2 1 C1.67 1.33 1.34 1.66 1 2 C3.97 2.495 3.97 2.495 7 3 C7 3.33 7 3.66 7 4 C3.37 4.33 -0.26 4.66 -4 5 C-2.68 3.35 -1.36 1.7 0 0 Z " fill="#30575F" transform="translate(99,18)"/>
<path d="M0 0 C0.66 0.33 1.32 0.66 2 1 C-0.64 3.64 -3.28 6.28 -6 9 C-6 6 -6 6 -3.5625 3.375 C-2.716875 2.59125 -1.87125 1.8075 -1 1 C-0.67 0.67 -0.34 0.34 0 0 Z " fill="#285058" transform="translate(176,151)"/>
<path d="M0 0 C0.66 0.33 1.32 0.66 2 1 C3.28317892 4.84953676 3.06643637 7.94738135 3 12 C2.67 12 2.34 12 2 12 C1.67 9.69 1.34 7.38 1 5 C0.34 5 -0.32 5 -1 5 C-0.67 3.35 -0.34 1.7 0 0 Z " fill="#325961" transform="translate(192,131)"/>
<path d="M0 0 C0.66 0 1.32 0 2 0 C2.1875 3.375 2.1875 3.375 2 7 C1.01 7.66 0.02 8.32 -1 9 C-0.67 6.03 -0.34 3.06 0 0 Z " fill="#ECEFF0" transform="translate(117,124)"/>
<path d="M0 0 C2.90802461 2.21928194 4.95312762 3.92969143 7 7 C6.67 7.99 6.34 8.98 6 10 C4.99421411 8.71283353 3.99553202 7.42011342 3 6.125 C2.443125 5.40570313 1.88625 4.68640625 1.3125 3.9453125 C0 2 0 2 0 0 Z " fill="#9EB0B4" transform="translate(173,51)"/>
<path d="M0 0 C0.66 0.33 1.32 0.66 2 1 C1.07213211 2.00894372 0.13231567 3.00690907 -0.8125 4 C-1.59560547 4.8353125 -1.59560547 4.8353125 -2.39453125 5.6875 C-4 7 -4 7 -7 7 C-7 6.34 -7 5.68 -7 5 C-5.46875 3.7109375 -5.46875 3.7109375 -3.5 2.375 C-2.8503125 1.92898437 -2.200625 1.48296875 -1.53125 1.0234375 C-1.0259375 0.68570313 -0.520625 0.34796875 0 0 Z " fill="#2B5159" transform="translate(159,182)"/>
<path d="M0 0 C1.04973814 4.19895255 0.72795155 6.79405774 0 11 C-0.99 11 -1.98 11 -3 11 C-2.01 7.37 -1.02 3.74 0 0 Z " fill="#758F94" transform="translate(188,134)"/>
<path d="M0 0 C0.86625 0.3403125 0.86625 0.3403125 1.75 0.6875 C1.42 2.0075 1.09 3.3275 0.75 4.6875 C0.75 4.0275 0.75 3.3675 0.75 2.6875 C-0.9 3.3475 -2.55 4.0075 -4.25 4.6875 C-4.91 4.0275 -5.57 3.3675 -6.25 2.6875 C-2.80384615 -0.38942308 -2.80384615 -0.38942308 0 0 Z " fill="#728D92" transform="translate(26.25,75.3125)"/>
<path d="M0 0 C0.33 0 0.66 0 1 0 C1.33 3.3 1.66 6.6 2 10 C1.34 10 0.68 10 0 10 C-1.625 8 -1.625 8 -3 6 C-2.67 5.34 -2.34 4.68 -2 4 C-1.34 4.33 -0.68 4.66 0 5 C0 3.35 0 1.7 0 0 Z " fill="#C0CBCE" transform="translate(169,40)"/>
<path d="M0 0 C2 1 2 1 3 3 C-1.43076923 5.09230769 -1.43076923 5.09230769 -4.3125 4.625 C-4.869375 4.41875 -5.42625 4.2125 -6 4 C-4 2.66666667 -2 1.33333333 0 0 Z " fill="#648188" transform="translate(134,193)"/>
</svg>
